<svg width="24" height="24" viewBox="0 0 24 24" fill="none" xmlns="http://www.w3.org/2000/svg">
<path d="M3.25306 0.422963L3.44306 0.590734L12 9.148L20.5569 0.590734C21.3446 -0.196911 22.6216 -0.196911 23.4093 0.590734C24.1363 1.31779 24.1923 2.46185 23.5771 3.25306L23.4093 3.44306L14.852 12L23.4093 20.5569C24.1969 21.3446 24.1969 22.6216 23.4093 23.4093C22.6822 24.1363 21.5382 24.1922 20.7469 23.577L20.5569 23.4093L12 14.852L3.44306 23.4093C2.65542 24.1969 1.37838 24.1969 0.590736 23.4093C-0.136322 22.6822 -0.192252 21.5382 0.42295 20.7469L0.590736 20.5569L9.14801 12L0.590736 3.44306C-0.19691 2.65541 -0.19691 1.37838 0.590736 0.590734C1.31779 -0.136323 2.46185 -0.192239 3.25306 0.422963Z" fill="white"/>
</svg>
