<svg width="16" height="12" viewBox="0 0 16 12" fill="none" xmlns="http://www.w3.org/2000/svg">
<path opacity="0.4" d="M3.55556 3.33335H12.4444V8.66669H3.55556V3.33335ZM14.6667 6.00002C14.6667 6.73641 15.2636 7.33335 16 7.33335V10C16 10.7364 15.4031 11.3334 14.6667 11.3334H1.33333C0.596944 11.3334 0 10.7364 0 10V7.33335C0.736389 7.33335 1.33333 6.73641 1.33333 6.00002C1.33333 5.26363 0.736389 4.66669 0 4.66669V2.00002C0 1.26363 0.596944 0.666687 1.33333 0.666687H14.6667C15.4031 0.666687 16 1.26363 16 2.00002V4.66669C15.2636 4.66669 14.6667 5.26363 14.6667 6.00002ZM13.3333 3.11113C13.3333 2.74294 13.0349 2.44446 12.6667 2.44446H3.33333C2.96514 2.44446 2.66667 2.74294 2.66667 3.11113V8.88891C2.66667 9.2571 2.96514 9.55558 3.33333 9.55558H12.6667C13.0349 9.55558 13.3333 9.2571 13.3333 8.88891V3.11113Z" fill="#9FA2B4"/>
</svg>
