<svg width="38" height="38" viewBox="0 0 38 38" fill="none" xmlns="http://www.w3.org/2000/svg">
<path d="M11.3164 14.0418C11.3164 17.929 14.688 21.1023 18.8529 21.1023C23.0179 21.1023 26.3895 17.929 26.3895 14.0418C26.3895 11.1065 24.5252 7.02088 21.9072 5.11691L24.4458 0H13.26L15.7987 5.11691C13.1807 7.02088 11.3164 11.1065 11.3164 14.0418ZM24.8028 14.0418C24.8028 17.0564 22.1452 19.5157 18.8529 19.5157C15.5607 19.5157 12.903 17.0564 12.903 14.0418C12.903 11.0271 15.6797 5.5929 18.8529 5.5929C22.0262 5.5929 24.8028 10.8685 24.8028 14.0418ZM15.8383 1.58664H21.8676L20.5189 4.32359C19.4488 3.89949 18.2571 3.89949 17.187 4.32359L15.8383 1.58664Z" fill="#575757"/>
<path d="M21.4314 13.1294C21.305 12.8511 21.1148 12.6065 20.8761 12.4155C20.6161 12.2384 20.3366 12.092 20.0431 11.9791L19.8448 11.8998L19.3291 11.7015V9.6785C19.4281 9.67205 19.5271 9.69044 19.6172 9.732C19.7072 9.77357 19.7855 9.83699 19.8448 9.9165C19.934 10.0191 20.0011 10.1389 20.0421 10.2686C20.083 10.3982 20.0969 10.5349 20.0828 10.6702V10.7891H21.4711V10.6702C21.4827 10.3325 21.4288 9.99572 21.3124 9.6785C21.1863 9.42213 21.0111 9.19302 20.7967 9.00418C20.5772 8.81895 20.3201 8.68361 20.0431 8.60752L19.3291 8.44886V7.77454H18.4564V8.44886L17.7425 8.60752C17.4597 8.69936 17.1923 8.83306 16.9491 9.00418C16.7336 9.2074 16.5586 9.44968 16.4335 9.71817C16.2723 10.0093 16.1903 10.3375 16.1955 10.6702C16.1856 11.0286 16.2675 11.3836 16.4335 11.7015C16.5613 11.9679 16.7518 12.1993 16.9888 12.3758C17.2304 12.5593 17.4977 12.7064 17.7821 12.8121L17.9805 12.8914L18.4564 13.0898V15.4301C18.3171 15.4351 18.1787 15.405 18.0539 15.3427C17.9292 15.2803 17.8221 15.1876 17.7425 15.0731C17.5335 14.7717 17.4354 14.4073 17.4648 14.0418V13.9228H16.0368V14.0418C16.0178 14.4094 16.0857 14.7763 16.2352 15.1127C16.3441 15.4248 16.5201 15.7091 16.7508 15.9457C16.9976 16.1631 17.2792 16.3374 17.5838 16.4614C17.8646 16.5594 18.1591 16.6129 18.4564 16.62V17.3737H19.2894V16.62C19.5606 16.6092 19.8283 16.5557 20.0828 16.4614C20.3853 16.3508 20.6669 16.1899 20.9157 15.9854C21.1532 15.7773 21.3427 15.5202 21.4711 15.2317C21.6016 14.8897 21.6689 14.5268 21.6694 14.1608C21.6849 13.8018 21.6027 13.4453 21.4314 13.1294ZM18.4564 11.5031H18.2978C18.1628 11.4711 18.0393 11.4025 17.9408 11.3048L17.7028 11.0271C17.6575 10.9131 17.6307 10.7926 17.6235 10.6702C17.6235 10.3132 17.7028 10.0752 17.9011 9.95616C18.0538 9.81606 18.2497 9.73213 18.4564 9.71817V11.5031ZM19.9241 15.1524C19.7509 15.3154 19.5267 15.4135 19.2894 15.4301V13.2484C19.2894 13.2881 19.2894 13.2881 19.3291 13.2881L19.4878 13.3674L19.8448 13.5658C19.9684 13.6459 20.0672 13.7588 20.1303 13.8919C20.1933 14.025 20.2181 14.173 20.2018 14.3194C20.2257 14.4704 20.213 14.6248 20.1647 14.7698C20.1164 14.9148 20.0338 15.046 19.9241 15.1524Z" fill="#575757"/>
<path d="M3.30412 10.4718C2.7269 10.4158 2.15068 10.5878 1.69856 10.951C1.24644 11.3141 0.954275 11.8397 0.884494 12.4154L0.0118428 20.3486C-0.0503009 20.9999 0.133661 21.6509 0.5275 22.1733L4.85109 28.1628C5.40716 28.9022 5.67506 29.8187 5.60474 30.7411L5.52541 31.6138H3.58178V38H15.0056V31.6138H13.6966L14.2519 24.9499C14.2867 24.4302 14.1471 23.9137 13.8553 23.4822L10.4043 17.6513C10.1084 17.1809 9.64962 16.8359 9.11549 16.6822C8.58137 16.5286 8.00937 16.577 7.50871 16.8184C7.00655 17.0742 6.62285 17.5143 6.438 18.0467C6.25314 18.5791 6.28148 19.1624 6.51706 19.6743L7.50871 21.7766L4.81143 18.8017L5.36675 12.9311C5.41114 12.3332 5.22041 11.7417 4.83516 11.2823C4.44991 10.823 3.90058 10.5322 3.30412 10.4718ZM13.4189 36.4134H5.16842V33.2004H13.4189V36.4134ZM7.31038 23.9186C7.45377 24.0773 7.63287 24.1997 7.83288 24.2755C8.0329 24.3514 8.24809 24.3786 8.46069 24.3549C8.67862 24.3317 8.88725 24.2542 9.06744 24.1295C9.24763 24.0047 9.39362 23.8367 9.49201 23.6409C9.60602 23.4575 9.66972 23.2473 9.67668 23.0314C9.68365 22.8155 9.63363 22.6017 9.53167 22.4113L7.94504 19.0397C7.90836 18.8989 7.92116 18.7498 7.9813 18.6173C8.04143 18.4849 8.14525 18.3771 8.27537 18.312C8.40548 18.247 8.554 18.2286 8.69605 18.2599C8.8381 18.2913 8.96507 18.3705 9.05568 18.4843L12.5066 24.3152C12.5703 24.3916 12.6173 24.4805 12.6446 24.5761C12.6719 24.6718 12.679 24.772 12.6653 24.8706L12.11 31.6138H7.15172V30.8205C7.23472 29.5466 6.86992 28.2838 6.1204 27.2505L1.79681 21.2213C1.71881 21.1288 1.6609 21.0211 1.62675 20.905C1.59261 20.7889 1.58298 20.667 1.59848 20.547L2.47113 12.6138C2.48092 12.5302 2.50724 12.4493 2.54857 12.376C2.58989 12.3027 2.6454 12.2383 2.71184 12.1866C2.77829 12.1349 2.85435 12.097 2.93561 12.075C3.01686 12.053 3.10168 12.0474 3.18512 12.0584C3.35695 12.0784 3.51452 12.1637 3.62527 12.2966C3.73601 12.4295 3.79144 12.5998 3.78011 12.7724L3.14545 19.357L7.31038 23.9186Z" fill="#575757"/>
<path d="M37.6944 20.3486L36.8218 12.4154C36.7875 12.128 36.6965 11.8502 36.5538 11.5983C36.4112 11.3465 36.2199 11.1255 35.991 10.9483C35.7621 10.7711 35.5002 10.6412 35.2206 10.5662C34.941 10.4912 34.6493 10.4726 34.3625 10.5115C33.7765 10.5718 33.2373 10.8584 32.8594 11.3103C32.4816 11.7622 32.2951 12.3437 32.3395 12.9311L32.8948 18.8016L30.1976 21.7766L31.2289 19.6743C31.4266 19.163 31.4284 18.5967 31.2337 18.0842C31.0391 17.5717 30.6618 17.1493 30.1744 16.8982C29.6871 16.6472 29.1241 16.5852 28.5938 16.7242C28.0636 16.8633 27.6034 17.1935 27.3019 17.6513L23.851 23.4426C23.5584 23.9032 23.4195 24.4449 23.4543 24.9895L24.0097 31.6138H22.7007V38H34.1245V31.6138H32.1808L32.1015 30.7411C32.0312 29.8187 32.2991 28.9022 32.8552 28.1628L37.1391 22.2129C37.5532 21.684 37.7516 21.0179 37.6944 20.3486ZM32.5378 36.4133H24.2873V33.2004H32.5378V36.4133ZM35.8698 21.2609L31.5462 27.2505C30.7908 28.296 30.4258 29.5733 30.5149 30.8601V31.6138H25.5963L25.041 24.8705C25.0159 24.6592 25.0727 24.4463 25.1996 24.2755L28.6506 18.4843C28.7334 18.3465 28.8655 18.2453 29.0201 18.2011C29.1748 18.1569 29.3404 18.1731 29.4836 18.2463C29.6156 18.3146 29.7174 18.4297 29.7687 18.5692C29.8201 18.7087 29.8175 18.8624 29.7612 19L28.1746 22.4112C28.0726 22.6016 28.0226 22.8155 28.0296 23.0314C28.0365 23.2473 28.1002 23.4575 28.2143 23.6409C28.3126 23.8367 28.4586 24.0047 28.6388 24.1295C28.819 24.2542 29.0276 24.3317 29.2456 24.3549C29.4582 24.3786 29.6734 24.3514 29.8734 24.2755C30.0734 24.1997 30.2525 24.0773 30.3959 23.9186L34.5608 19.357L33.9262 12.7724C33.9208 12.6838 33.933 12.5951 33.962 12.5112C33.991 12.4273 34.0363 12.35 34.0952 12.2837C34.1542 12.2173 34.2257 12.1633 34.3056 12.1246C34.3855 12.086 34.4722 12.0635 34.5608 12.0584C34.7229 12.047 34.8833 12.0983 35.0087 12.2016C35.1342 12.3049 35.2152 12.4525 35.2351 12.6138L36.1078 20.5469C36.1239 20.6762 36.1109 20.8074 36.0697 20.9309C36.0285 21.0545 35.9602 21.1672 35.8698 21.2609Z" fill="#575757"/>
</svg>
